<svg width="285" height="40" viewBox="0 0 285 40" fill="none" xmlns="http://www.w3.org/2000/svg">
<path d="M31.625 17.3097V14.4545H43.919V17.3097H39.5085V29H36.0426V17.3097H31.625ZM45.636 29V14.4545H49.1516V20.2926H54.8832V14.4545H58.3917V29H54.8832V23.1548H49.1516V29H45.636ZM60.5969 29V14.4545H70.739V17.3097H64.1126V20.2926H70.2205V23.1548H64.1126V26.1449H70.739V29H60.5969ZM85.0998 18.8153C85.0524 18.2945 84.8417 17.8897 84.4677 17.6009C84.0984 17.3073 83.5704 17.1605 82.8839 17.1605C82.4293 17.1605 82.0505 17.2197 81.7475 17.3381C81.4445 17.4564 81.2172 17.6198 81.0657 17.8281C80.9142 18.0317 80.8361 18.2661 80.8313 18.5312C80.8219 18.7491 80.8645 18.9408 80.9592 19.1065C81.0586 19.2723 81.2006 19.419 81.3853 19.5469C81.5747 19.67 81.802 19.7789 82.0671 19.8736C82.3323 19.9683 82.6306 20.0511 82.962 20.1222L84.212 20.4062C84.9317 20.5625 85.5662 20.7708 86.1154 21.0312C86.6694 21.2917 87.1334 21.6018 87.5075 21.9616C87.8862 22.3215 88.1727 22.7358 88.3668 23.2045C88.561 23.6733 88.6604 24.1989 88.6651 24.7812C88.6604 25.6998 88.4284 26.4882 87.9691 27.1463C87.5098 27.8045 86.8493 28.3087 85.9876 28.6591C85.1306 29.0095 84.096 29.1847 82.8839 29.1847C81.667 29.1847 80.6064 29.0024 79.7021 28.6378C78.7977 28.2732 78.0946 27.7192 77.5927 26.9759C77.0908 26.2325 76.8327 25.2926 76.8185 24.1562H80.185C80.2134 24.625 80.3389 25.0156 80.5614 25.3281C80.784 25.6406 81.0894 25.8774 81.4776 26.0384C81.8706 26.1993 82.3252 26.2798 82.8413 26.2798C83.3147 26.2798 83.7172 26.2159 84.0487 26.0881C84.3848 25.9602 84.6429 25.7827 84.8228 25.5554C85.0027 25.3281 85.0951 25.0677 85.0998 24.7741C85.0951 24.4995 85.0098 24.2652 84.8441 24.071C84.6784 23.8722 84.4227 23.7017 84.0771 23.5597C83.7362 23.4129 83.3005 23.2779 82.7702 23.1548L81.2504 22.7997C79.9909 22.5109 78.9989 22.0445 78.2745 21.4006C77.5501 20.7519 77.1902 19.8759 77.195 18.7727C77.1902 17.8731 77.4317 17.0848 77.9194 16.4077C78.4071 15.7306 79.0818 15.2027 79.9435 14.8239C80.8053 14.4451 81.7878 14.2557 82.891 14.2557C84.0179 14.2557 84.9956 14.4474 85.8242 14.831C86.6576 15.2098 87.3039 15.7424 87.7631 16.429C88.2224 17.1155 88.4568 17.911 88.4663 18.8153H85.0998ZM93.1378 29H89.3594L94.267 14.4545H98.9474L103.855 29H100.077L96.6605 18.1193H96.5469L93.1378 29ZM92.6335 23.2756H100.531V25.946H92.6335V23.2756ZM108.937 14.4545V29H105.421V14.4545H108.937ZM111.144 29V14.4545H114.659V26.1449H120.711V29H111.144ZM135.693 21.7273C135.693 23.3277 135.385 24.6842 134.77 25.7969C134.154 26.9096 133.321 27.7547 132.27 28.3324C131.223 28.91 130.049 29.1989 128.747 29.1989C127.44 29.1989 126.263 28.9077 125.217 28.3253C124.171 27.7429 123.34 26.8977 122.724 25.7898C122.113 24.6771 121.808 23.3229 121.808 21.7273C121.808 20.1269 122.113 18.7704 122.724 17.6577C123.34 16.545 124.171 15.6998 125.217 15.1222C126.263 14.5445 127.44 14.2557 128.747 14.2557C130.049 14.2557 131.223 14.5445 132.27 15.1222C133.321 15.6998 134.154 16.545 134.77 17.6577C135.385 18.7704 135.693 20.1269 135.693 21.7273ZM132.099 21.7273C132.099 20.7803 131.964 19.9801 131.694 19.3267C131.429 18.6733 131.046 18.1785 130.544 17.8423C130.047 17.5062 129.448 17.3381 128.747 17.3381C128.051 17.3381 127.452 17.5062 126.95 17.8423C126.448 18.1785 126.062 18.6733 125.792 19.3267C125.527 19.9801 125.395 20.7803 125.395 21.7273C125.395 22.6742 125.527 23.4744 125.792 24.1278C126.062 24.7812 126.448 25.276 126.95 25.6122C127.452 25.9484 128.051 26.1165 128.747 26.1165C129.448 26.1165 130.047 25.9484 130.544 25.6122C131.046 25.276 131.429 24.7812 131.694 24.1278C131.964 23.4744 132.099 22.6742 132.099 21.7273ZM137.745 29V14.4545H143.754C144.843 14.4545 145.783 14.651 146.574 15.044C147.369 15.4323 147.982 15.991 148.413 16.7202C148.844 17.4446 149.059 18.304 149.059 19.2983C149.059 20.3068 148.839 21.1638 148.399 21.8693C147.958 22.5701 147.333 23.1051 146.524 23.4744C145.714 23.839 144.755 24.0213 143.647 24.0213H139.848V21.2514H142.994C143.524 21.2514 143.967 21.1828 144.322 21.0455C144.682 20.9034 144.954 20.6903 145.139 20.4062C145.324 20.1174 145.416 19.7481 145.416 19.2983C145.416 18.8485 145.324 18.4768 145.139 18.1832C144.954 17.8849 144.682 17.6624 144.322 17.5156C143.962 17.3641 143.52 17.2884 142.994 17.2884H141.261V29H137.745ZM145.934 22.3523L149.556 29H145.721L142.17 22.3523H145.934ZM153.878 14.4545V16.0739C153.878 16.5237 153.788 16.9782 153.608 17.4375C153.433 17.892 153.203 18.3182 152.919 18.7159C152.635 19.1136 152.335 19.4498 152.017 19.7244L150.54 18.9148C150.758 18.5549 150.952 18.1501 151.123 17.7003C151.293 17.2457 151.378 16.706 151.378 16.081V14.4545H153.878ZM163.694 18.8153C163.646 18.2945 163.435 17.8897 163.061 17.6009C162.692 17.3073 162.164 17.1605 161.478 17.1605C161.023 17.1605 160.644 17.2197 160.341 17.3381C160.038 17.4564 159.811 17.6198 159.659 17.8281C159.508 18.0317 159.43 18.2661 159.425 18.5312C159.416 18.7491 159.458 18.9408 159.553 19.1065C159.652 19.2723 159.794 19.419 159.979 19.5469C160.168 19.67 160.396 19.7789 160.661 19.8736C160.926 19.9683 161.224 20.0511 161.556 20.1222L162.806 20.4062C163.525 20.5625 164.16 20.7708 164.709 21.0312C165.263 21.2917 165.727 21.6018 166.101 21.9616C166.48 22.3215 166.766 22.7358 166.961 23.2045C167.155 23.6733 167.254 24.1989 167.259 24.7812C167.254 25.6998 167.022 26.4882 166.563 27.1463C166.104 27.8045 165.443 28.3087 164.581 28.6591C163.724 29.0095 162.69 29.1847 161.478 29.1847C160.261 29.1847 159.2 29.0024 158.296 28.6378C157.391 28.2732 156.688 27.7192 156.186 26.9759C155.685 26.2325 155.426 25.2926 155.412 24.1562H158.779C158.807 24.625 158.933 25.0156 159.155 25.3281C159.378 25.6406 159.683 25.8774 160.071 26.0384C160.464 26.1993 160.919 26.2798 161.435 26.2798C161.908 26.2798 162.311 26.2159 162.642 26.0881C162.979 25.9602 163.237 25.7827 163.417 25.5554C163.596 25.3281 163.689 25.0677 163.694 24.7741C163.689 24.4995 163.604 24.2652 163.438 24.071C163.272 23.8722 163.016 23.7017 162.671 23.5597C162.33 23.4129 161.894 23.2779 161.364 23.1548L159.844 22.7997C158.585 22.5109 157.593 22.0445 156.868 21.4006C156.144 20.7519 155.784 19.8759 155.789 18.7727C155.784 17.8731 156.025 17.0848 156.513 16.4077C157.001 15.7306 157.676 15.2027 158.537 14.8239C159.399 14.4451 160.382 14.2557 161.485 14.2557C162.612 14.2557 163.589 14.4474 164.418 14.831C165.251 15.2098 165.898 15.7424 166.357 16.429C166.816 17.1155 167.051 17.911 167.06 18.8153H163.694ZM186.534 19.7244H182.983C182.936 19.3598 182.839 19.0308 182.692 18.7372C182.545 18.4437 182.351 18.1927 182.11 17.9844C181.868 17.776 181.582 17.6174 181.25 17.5085C180.924 17.3949 180.561 17.3381 180.164 17.3381C179.458 17.3381 178.85 17.5109 178.338 17.8565C177.832 18.2022 177.441 18.7017 177.167 19.3551C176.897 20.0085 176.762 20.7992 176.762 21.7273C176.762 22.6932 176.899 23.5028 177.174 24.1562C177.453 24.8049 177.844 25.295 178.346 25.6264C178.852 25.9531 179.451 26.1165 180.142 26.1165C180.531 26.1165 180.883 26.0668 181.201 25.9673C181.523 25.8679 181.804 25.7235 182.046 25.5341C182.292 25.34 182.493 25.1056 182.65 24.831C182.81 24.5516 182.922 24.2367 182.983 23.8864L186.534 23.9077C186.473 24.5516 186.286 25.1861 185.973 25.8111C185.666 26.4361 185.242 27.0066 184.702 27.5227C184.162 28.0341 183.504 28.4413 182.728 28.7443C181.956 29.0473 181.07 29.1989 180.071 29.1989C178.755 29.1989 177.576 28.91 176.534 28.3324C175.498 27.75 174.678 26.9025 174.077 25.7898C173.476 24.6771 173.175 23.3229 173.175 21.7273C173.175 20.1269 173.48 18.7704 174.091 17.6577C174.702 16.545 175.528 15.6998 176.57 15.1222C177.612 14.5445 178.779 14.2557 180.071 14.2557C180.952 14.2557 181.766 14.3788 182.515 14.625C183.263 14.8665 183.921 15.2216 184.489 15.6903C185.057 16.1544 185.519 16.7249 185.874 17.402C186.229 18.0791 186.449 18.8532 186.534 19.7244ZM191.321 29H187.543L192.451 14.4545H197.131L202.039 29H198.26L194.844 18.1193H194.73L191.321 29ZM190.817 23.2756H198.715V25.946H190.817V23.2756ZM201.312 17.3097V14.4545H213.607V17.3097H209.196V29H205.73V17.3097H201.312ZM227.863 19.7244H224.311C224.264 19.3598 224.167 19.0308 224.02 18.7372C223.873 18.4437 223.679 18.1927 223.438 17.9844C223.196 17.776 222.91 17.6174 222.578 17.5085C222.252 17.3949 221.89 17.3381 221.492 17.3381C220.786 17.3381 220.178 17.5109 219.667 17.8565C219.16 18.2022 218.769 18.7017 218.495 19.3551C218.225 20.0085 218.09 20.7992 218.09 21.7273C218.09 22.6932 218.227 23.5028 218.502 24.1562C218.781 24.8049 219.172 25.295 219.674 25.6264C220.18 25.9531 220.779 26.1165 221.471 26.1165C221.859 26.1165 222.212 26.0668 222.529 25.9673C222.851 25.8679 223.132 25.7235 223.374 25.5341C223.62 25.34 223.821 25.1056 223.978 24.831C224.139 24.5516 224.25 24.2367 224.311 23.8864L227.863 23.9077C227.801 24.5516 227.614 25.1861 227.301 25.8111C226.994 26.4361 226.57 27.0066 226.03 27.5227C225.49 28.0341 224.832 28.4413 224.056 28.7443C223.284 29.0473 222.399 29.1989 221.4 29.1989C220.083 29.1989 218.904 28.91 217.863 28.3324C216.826 27.75 216.007 26.9025 215.405 25.7898C214.804 24.6771 214.503 23.3229 214.503 21.7273C214.503 20.1269 214.809 18.7704 215.419 17.6577C216.03 16.545 216.856 15.6998 217.898 15.1222C218.94 14.5445 220.107 14.2557 221.4 14.2557C222.28 14.2557 223.095 14.3788 223.843 14.625C224.591 14.8665 225.249 15.2216 225.817 15.6903C226.385 16.1544 226.847 16.7249 227.202 17.402C227.557 18.0791 227.777 18.8532 227.863 19.7244ZM229.874 29V14.4545H233.39V20.2926H239.121V14.4545H242.63V29H239.121V23.1548H233.39V29H229.874Z" fill="#F9AD46"/>
<path d="M281.973 0.766997C271.774 -1.4494 262.313 5.17946 258.858 8.77094C253.222 13.9871 249.13 14.4861 247.789 14.0837L248.729 28.0614C253.827 27.5574 258.613 29.972 260.369 31.2424C263.549 33.4918 272.542 40.3666 284.338 35.9455C281.653 28.8033 267.943 21.6635 263.565 20.144C267.788 18.0237 277.381 11.1799 281.973 0.766997Z" fill="#F9AD46"/>
<path d="M26 30.4625V12.2849C4.6135 9.96438 -1.60803 22.3406 0.336195 30.4625C5.62449 33.2471 19.6489 31.6227 26 30.4625Z" fill="#F9AD46"/>
</svg>
